# xmcd
#
# Track frame offsets: 
#        150
#        20640
#        37251
#        57474
#        75652
#        96263
#        119026
#        137340
#        153339
#        168241
#        186892
#        208259
#        227710
#
# Disc length: 3488 seconds
#
# Revision: 2
# Processed by: cddbd v1.5.2PL0 Copyright (c) Steve Scherf et al.
# Submitted via: ExactAudioCopy v1.0b3
#
DISCID=b60d9e0d
DTITLE=Julia Fordham - Concrete Love
DYEAR=2002
DGENRE=Vocal
TTITLE0=Love
TTITLE1=Italy
TTITLE2=Wake Up With You (The I Wanna Song)
TTITLE3=Concrete Love (featuring india.arie)
TTITLE4=Missing Man
TTITLE5=Foolish Thing
TTITLE6=Butterfly
TTITLE7=It's Another You Day
TTITLE8=Something Right
TTITLE9=Roadside Angel
TTITLE10=Alleluia (featuring Joe Henry)
TTITLE11=Funny Guy
TTITLE12=Silver
EXTD=YEAR: 2002
EXTT0=
EXTT1=
EXTT2=
EXTT3=
EXTT4=
EXTT5=
EXTT6=
EXTT7=
EXTT8=
EXTT9=
EXTT10=
EXTT11=
EXTT12=
PLAYORDER=
